<svg version="1.1" id="Layer_1" xmlns="http://www.w3.org/2000/svg" xmlns:xlink="http://www.w3.org/1999/xlink" x="0" y="0" viewBox="0 0 417.49 189.7" xml:space="preserve"><style>.st0{clip-path:url(#SVGID_2_);fill:#1c305d}.st0,.st1,.st2{fill-rule:evenodd;clip-rule:evenodd}.st1{clip-path:url(#SVGID_2_);fill:#13589a}.st2{fill:#3e91ce}.st2,.st5,.st7{clip-path:url(#SVGID_2_)}.st5{fill-rule:evenodd;clip-rule:evenodd;fill:#f07e22}.st7{fill:#13589a}</style><g id="Artwork_2_2_"><defs><path id="SVGID_1_" d="M4.19 3.3H413.3v183.1H4.19z"/></defs><clipPath id="SVGID_2_"><use xlink:href="#SVGID_1_" overflow="visible"/></clipPath><path class="st0" d="M196.57 37.25l39.46-6.67 2.9-2.33z"/><path class="st1" d="M196.57 37.25l42.36-9-42.83 4.57z"/><path class="st2" d="M173.07 65.98l23.5-28.73-44.98 23.5z"/><path class="st0" d="M151.59 60.75l44.98-23.5-.47-4.43-.69.08-29.6-5.23z"/><path class="st1" d="M151.59 60.75l9 28.73 12.48-23.5z"/><path clip-path="url(#SVGID_2_)" fill-rule="evenodd" clip-rule="evenodd" fill="#fff" d="M160.59 89.48l-9-28.73-30.03 34.1z"/><path clip-path="url(#SVGID_2_)" fill-rule="evenodd" clip-rule="evenodd" fill="#53c0a1" d="M121.56 94.85l30.03-34.1-21.33-2.77z"/><path class="st0" d="M151.59 60.75l-30.03 34.1 39.03-5.37z"/><path class="st1" d="M130.26 57.98l21.33 2.77 14.22-33.08-35.27 29.12z"/><path class="st5" d="M160.59 89.48l-39.03 5.37 5.37 27.71z"/><path clip-path="url(#SVGID_2_)" fill-rule="evenodd" clip-rule="evenodd" fill="#f3b01c" d="M121.56 94.85L95.3 138.81l31.63-16.25z"/><path class="st0" d="M95.3 138.81l26.26-43.96-41.64 34.67 18.28 35.4z"/><path class="st2" d="M98.2 164.92l-18.28-35.4 6.68 33.66z"/><path class="st7" d="M106.91 185.82l-8.71-20.9-11.6-1.74z"/><path clip-path="url(#SVGID_2_)" fill="#3e91ce" d="M106.91 185.82l4.64.58-13.35-21.48z"/><path class="st5" d="M77.6 32.32l27.28 10.73L73.25 5.33z"/><path class="st2" d="M121.56 94.85l-36.42 1.88-5.22 32.79z"/><path class="st1" d="M85.14 96.73l36.42-1.88-30.55-27.78-1.75-1.29-26.67 10.16z"/><path class="st0" d="M62.59 75.94l26.67-10.16L47.1 34.81l-26.08 5.63z"/><path class="st7" d="M4.19 3.3l16.83 37.14 26.08-5.63z"/><path class="st0" d="M110.95 49.87L89.5 65.69l1.51 1.38 30.55 27.78 8.7-36.87.28-1.19-1.29 1.06z"/><path class="st1" d="M89.5 65.69l21.45-15.82-44.23-19.29z"/><path class="st5" d="M89.5 65.69L66.72 30.58 47.1 34.81l42.16 30.97z"/><path clip-path="url(#SVGID_2_)" fill="#f3b01c" d="M4.19 3.3L47.1 34.81l19.62-4.23z"/><g clip-path="url(#SVGID_2_)"><defs><path id="SVGID_3_" d="M4.19 3.3H413.3v183.1H4.19z"/></defs><clipPath id="SVGID_4_"><use xlink:href="#SVGID_3_" overflow="visible"/></clipPath><path d="M167.54 134.47c0 1.84-.24 7.07-6.83 7.07-2.73 0-5.17-.77-5.17-3.92 0-3.09 2.38-3.98 4.99-4.51 2.61-.47 5.58-.53 7.01-1.78v3.14zm-11.04-9.38c.3-3.32 2.38-4.63 5.58-4.63 2.97 0 5.46.53 5.46 4.16 0 3.44-4.81 3.26-9.98 4.04-5.23.71-10.45 2.38-10.45 9.32 0 6.29 4.63 9.2 10.45 9.2 3.74 0 7.66-1.01 10.33-3.8.06 1.01.3 2.02.59 2.97h8.55c-.77-1.25-1.07-4.04-1.07-6.83v-15.97c0-7.36-7.36-8.73-13.48-8.73-6.89 0-13.96 2.37-14.43 10.27h8.45zm24.2 21.26h8.43v-13.84c0-5.4 2.14-9.86 8.31-9.86 1.01 0 2.26.12 3.03.3v-7.84a6.22 6.22 0 00-1.84-.3c-4.1 0-8.26 2.67-9.8 6.53h-.12v-5.7h-8.02v30.71zm22.08 0h8.43v-10.57l3.27-3.15 8.43 13.72h10.21l-12.88-19.42 11.58-11.28h-9.98l-10.63 11.04v-22.74h-8.43v42.4zm50.63-11.88c0 1.84-.24 7.07-6.83 7.07-2.73 0-5.16-.77-5.16-3.92 0-3.09 2.37-3.98 4.99-4.51 2.61-.47 5.58-.53 7.01-1.78v3.14zm-11.05-9.38c.3-3.32 2.38-4.63 5.58-4.63 2.97 0 5.46.53 5.46 4.16 0 3.44-4.81 3.26-9.97 4.04-5.23.71-10.45 2.38-10.45 9.32 0 6.29 4.63 9.2 10.45 9.2 3.74 0 7.66-1.01 10.33-3.8.06 1.01.3 2.02.59 2.97h8.55c-.77-1.25-1.07-4.04-1.07-6.83v-15.97c0-7.36-7.36-8.73-13.48-8.73-6.89 0-13.95 2.37-14.43 10.27h8.44zm46.12 21.26h8.02v-42.4h-8.43v15.44h-.12c-1.9-3.03-5.46-4.57-9.09-4.57-9.03 0-13.6 7.66-13.6 15.91 0 8.49 4.51 16.45 13.78 16.45 3.92 0 7.36-1.43 9.32-4.75h.12v3.92zm-.12-15.44c0 5.05-1.66 9.92-7.24 9.92-5.23 0-7.42-5.05-7.42-9.86 0-5.05 1.9-9.8 7.42-9.8 5.46 0 7.24 4.75 7.24 9.74m41.79 2.13c.59-9.44-4.45-18.23-14.9-18.23-9.32 0-15.68 7-15.68 16.21 0 9.5 6 16.15 15.68 16.15 6.95 0 11.99-3.09 14.37-10.33h-7.42c-.53 1.9-3.26 3.98-6.65 3.98-4.69 0-7.3-2.43-7.54-7.78h22.14zM308 127.7c.12-2.38 1.66-6.53 7.01-6.53 4.1 0 5.94 2.26 6.71 6.53H308zm25.57 18.65H342v-17.82c0-6 4.04-7.07 5.7-7.07 5.35 0 5.11 4.1 5.11 7.66v17.22h8.43v-17.1c0-3.86.89-7.78 5.64-7.78 4.81 0 5.17 3.39 5.17 7.48v17.4h8.43V125.8c0-7.96-4.69-10.98-11.22-10.98-4.27 0-7.48 2.43-9.26 5.1-1.66-3.68-5.11-5.1-8.97-5.1-3.98 0-7.19 1.84-9.38 4.99h-.12v-4.16h-7.96v30.7zm79.73-30.7h-8.73l-6.71 21.02h-.12l-6.95-21.02h-9.03l10.81 28.8c.95 2.43 0 5.46-2.91 5.76-1.66.06-3.32-.18-4.93-.3v6.95c1.72.18 3.44.3 5.17.3 5.82 0 8.73-2.02 10.57-6.95l12.83-34.56z" clip-path="url(#SVGID_4_)" fill="#1c305d"/><path d="M154.18 160.09h-6.7v-2.37h16.08v2.37h-6.7v17.45h-2.68zm17.44 17.84c-2.04 0-3.65-.65-4.81-1.94-1.17-1.29-1.75-3.08-1.75-5.37 0-2.43.62-4.36 1.86-5.79 1.24-1.43 2.89-2.15 4.98-2.15 1.89 0 3.41.7 4.57 2.1 1.16 1.4 1.74 3.24 1.74 5.53l-.03.86h-10.53c.1 1.44.43 2.54.98 3.29.68.92 1.76 1.38 3.23 1.38.93 0 1.73-.26 2.43-.78.69-.52 1.11-1.19 1.27-2h2.4c-.36 1.58-1.08 2.79-2.15 3.62-1.1.83-2.49 1.25-4.19 1.25m4.05-8.71c-.07-1.34-.4-2.38-1-3.13-.66-.83-1.62-1.24-2.89-1.24-1.28 0-2.3.48-3.06 1.43-.6.75-.97 1.73-1.09 2.94h8.04zm16.8 3.13c-.25 1.81-.89 3.2-1.93 4.15-1.03.95-2.41 1.43-4.12 1.43-1.91 0-3.44-.69-4.58-2.06-1.14-1.38-1.71-3.23-1.71-5.55 0-2.33.59-4.18 1.77-5.56 1.18-1.38 2.77-2.07 4.76-2.07 1.73 0 3.12.47 4.15 1.42 1.03.95 1.59 2.25 1.66 3.91h-2.33c-.1-1.03-.46-1.83-1.08-2.4-.62-.57-1.45-.85-2.48-.85-1.22 0-2.18.49-2.88 1.47-.7.99-1.04 2.34-1.04 4.07 0 1.83.32 3.21.97 4.14.65.93 1.61 1.39 2.88 1.39.94 0 1.73-.3 2.37-.91.63-.61 1.05-1.47 1.26-2.58h2.33zm2.43-14.63h2.42v7.35l.42-.54c1.05-1.23 2.37-1.85 3.95-1.85 1.59 0 2.82.43 3.68 1.29.86.86 1.29 2.09 1.29 3.68v9.88h-2.42v-9.27c0-1.2-.23-2.06-.69-2.58-.46-.52-1.21-.79-2.24-.79-1.22 0-2.19.44-2.91 1.33-.72.89-1.08 2.08-1.08 3.59v7.72h-2.42v-19.81zm29.1 0h3.06l7.12 19.82h-2.88l-2.02-5.74h-7.91l-2.08 5.74h-2.77l7.48-19.82zm-1.78 11.7h6.23l-3.05-8.79h.01l-3.19 8.79zm25.49 2.93c-.25 1.81-.9 3.2-1.93 4.15-1.03.95-2.41 1.43-4.12 1.43-1.91 0-3.44-.69-4.58-2.06-1.14-1.38-1.71-3.23-1.71-5.55 0-2.33.59-4.18 1.77-5.56 1.18-1.38 2.77-2.07 4.77-2.07 1.74 0 3.12.47 4.15 1.42 1.04.95 1.59 2.25 1.66 3.91h-2.33c-.1-1.03-.46-1.83-1.08-2.4-.62-.57-1.45-.85-2.48-.85-1.22 0-2.18.49-2.88 1.47-.7.99-1.04 2.34-1.04 4.07 0 1.83.32 3.21.97 4.14.65.93 1.61 1.39 2.88 1.39.94 0 1.73-.3 2.37-.91.63-.61 1.05-1.47 1.26-2.58h2.32zm6.23 5.58c-1.41 0-2.53-.38-3.36-1.13-.83-.75-1.24-1.77-1.24-3.06s.39-2.32 1.16-3.09c.78-.76 1.91-1.24 3.4-1.43l3.3-.42c.27-.03.52-.07.77-.13.31-.08.56-.24.73-.49.17-.24.26-.55.26-.92v-.12c0-.77-.29-1.38-.88-1.81-.58-.43-1.4-.65-2.44-.65-1 0-1.78.23-2.34.69-.56.47-.9 1.15-1.02 2.07h-2.24c.12-1.58.67-2.77 1.67-3.56 1-.8 2.43-1.19 4.29-1.19 1.75 0 3.09.38 4 1.14.92.76 1.37 1.87 1.37 3.32v7.93c0 .24.08.44.22.59.15.14.35.22.6.22.07 0 .18-.01.32-.03.14-.02.29-.05.45-.08v1.75c-.23.09-.48.16-.74.22-.26.05-.48.08-.66.08-.92 0-1.58-.25-1.99-.75-.27-.33-.46-.81-.58-1.42-.18.22-.39.44-.62.65-1.2 1.07-2.68 1.62-4.43 1.62m5.03-6.11v-1.57c-.45.22-.95.36-1.5.44l-2.22.33c-1.17.16-2.02.43-2.56.81-.54.38-.81.9-.81 1.56 0 .81.22 1.43.66 1.87.44.44 1.06.65 1.87.65 1.28 0 2.35-.34 3.24-1.04.6-.49 1-1.04 1.2-1.65.04-.12.06-.3.08-.55.02-.25.04-.53.04-.85m12.02 6.11c-1.93 0-3.47-.72-4.61-2.16-1.14-1.44-1.71-3.39-1.71-5.84 0-2.16.55-3.91 1.66-5.24 1.11-1.33 2.55-1.99 4.33-1.99 1.77 0 3.17.75 4.2 2.25l.19.27v-7.48h2.42v19.82h-2.25v-1.97l-.31.44c-.99 1.26-2.3 1.9-3.92 1.9m.13-13.07c-1.36 0-2.35.43-2.98 1.3-.63.87-.94 2.24-.94 4.13 0 1.78.34 3.15 1.02 4.11.68.96 1.65 1.44 2.91 1.44 1.18 0 2.12-.44 2.84-1.33.72-.89 1.08-2.06 1.08-3.51 0-1.97-.34-3.48-1.02-4.55-.68-1.05-1.65-1.59-2.91-1.59m15.6 13.07c-2.04 0-3.64-.65-4.81-1.94-1.17-1.29-1.75-3.08-1.75-5.37 0-2.43.62-4.36 1.85-5.79 1.23-1.43 2.89-2.15 4.98-2.15 1.89 0 3.41.7 4.57 2.1 1.16 1.4 1.74 3.24 1.74 5.53l-.03.86h-10.53c.1 1.44.43 2.54.99 3.29.68.92 1.76 1.38 3.23 1.38.93 0 1.73-.26 2.43-.78.69-.52 1.11-1.19 1.27-2h2.4c-.36 1.58-1.08 2.79-2.16 3.62-1.09.83-2.48 1.25-4.18 1.25m4.05-8.71c-.07-1.34-.4-2.38-1-3.13-.66-.83-1.62-1.24-2.89-1.24-1.28 0-2.3.48-3.06 1.43-.6.75-.97 1.73-1.09 2.94h8.04zm5.43-6.11h2.3v2.14l.5-.65c1.09-1.28 2.39-1.93 3.9-1.93 1.29 0 2.32.38 3.09 1.15.34.34.61.73.79 1.17l.39-.5c1.04-1.21 2.29-1.82 3.73-1.82 1.51 0 2.68.41 3.5 1.23.82.82 1.23 1.99 1.23 3.5v10.12h-2.42v-9.3c0-1.1-.22-1.93-.67-2.49-.45-.57-1.1-.85-1.97-.85-1.05 0-1.89.41-2.51 1.23-.62.82-.93 1.92-.93 3.32v8.1h-2.42v-9.88c0-.9-.21-1.58-.61-2.05-.41-.47-1-.71-1.79-.71-1.08 0-1.96.46-2.65 1.37-.69.92-1.03 2.1-1.03 3.55v7.72h-2.42v-14.42zm29.21 14.9c-.84 2.22-1.6 3.67-2.26 4.35-.66.68-1.65 1.02-2.97 1.02-.43.01-.82-.04-1.17-.15v-2.25c.37.14.83.21 1.39.21.55 0 1.01-.22 1.38-.67.37-.45.79-1.29 1.25-2.52l.04-.23-5.35-14.66h2.77l3.85 11.93 3.91-11.93h2.66l-5.5 14.9z" clip-path="url(#SVGID_4_)" fill="#f07e22"/></g></g></svg>